<?xml version="1.0" encoding="utf-8"?>
<!-- Generator: Adobe Illustrator 30.1.0, SVG Export Plug-In . SVG Version: 9.03 Build 0)  -->
<svg version="1.1" id="Layer_1" xmlns="http://www.w3.org/2000/svg" xmlns:xlink="http://www.w3.org/1999/xlink" x="0px" y="0px"
	 viewBox="0 0 2937.1 1795.12" style="enable-background:new 0 0 2937.1 1795.12;" xml:space="preserve">
<style type="text/css">
	.st0{fill:url(#SVGID_1_);}
	.st1{fill:#E5D2B7;}
	.st2{fill:#472D16;}
	.st3{fill:none;}
</style>
<g id="BAGGRUND">
	
		<linearGradient id="SVGID_1_" gradientUnits="userSpaceOnUse" x1="1480.6702" y1="-1636" x2="1480.6702" y2="159.12" gradientTransform="matrix(1 0 0 1 0 1636)">
		<stop  offset="0.43" style="stop-color:#A37C53"/>
		<stop  offset="0.51" style="stop-color:#AC8760"/>
		<stop  offset="0.65" style="stop-color:#C6A685"/>
		<stop  offset="0.67" style="stop-color:#CAAB8A"/>
		<stop  offset="1" style="stop-color:#E5D2B7"/>
	</linearGradient>
	<rect x="12.12" class="st0" width="2937.1" height="1795.12"/>
</g>
<g id="Skum">
	<path class="st1" d="M-2.5,174.69C288.53,57.33,553.81,40.13,955.38,64.48c681.91,41.35,1488.6,509.14,1488.6,667.3
		s-860.82-94.56-1488.6-94.56c-402.34,0-647.72,63.26-957.88,132.12"/>
	<path class="st1" d="M2940.85,1387.22c-291.04,117.36-556.3,134.56-957.88,110.21c-681.91-41.35-1488.6-509.14-1488.6-667.3
		s860.82,94.56,1488.6,94.56c402.34,0,647.72-63.26,957.88-132.12"/>
</g>
<g id="Text1">
	<g>
		<path class="st2" d="M78.53,332.18c6.7-1.59,10.06-2.38,16.77-3.93c55.15-12.48,72.61,44.25,79.15,86.36
			c6.42,41.3,6.74,106.76-43.94,121.5c-6.36,1.79-9.53,2.69-15.88,4.52C102.59,471.15,90.56,401.66,78.53,332.18L78.53,332.18z
			 M153.5,420.52c-3.59-22.74-13.18-92.53-52.91-82.7c10.52,62.42,21.05,124.85,31.57,187.27
			C168.11,514.29,157.34,444.82,153.5,420.52L153.5,420.52z"/>
		<path class="st2" d="M225.18,405.71c-3.98-27.75-16.62-104.22,27.14-111.71c43.42-7.43,51.6,69.05,54.87,95.18
			c3.53,28.24,14.1,101.48-27.18,111.13c-41.73,9.76-51.34-70.31-54.82-94.6H225.18z M285.73,393.27
			c-1.66-12.82-7.78-92.8-31.97-88.58c-24.71,4.32-9.19,81.74-7.14,96.46c1.68,12.08,9.2,93.47,31.96,88.44
			C302.38,484.33,287.72,408.55,285.73,393.27L285.73,393.27z"/>
		<path class="st2" d="M351.35,280.16c7.25-1.05,10.88-1.56,18.14-2.57c19.59,47.94,38.89,96,57.86,144.18
			c-4.92-49.95-9.84-99.9-14.76-149.84c5.57-0.69,8.36-1.03,13.94-1.7c6.21,65.13,12.43,130.26,18.63,195.39
			c-6.92,1.16-10.37,1.75-17.29,2.95c-18.88-48.17-38.06-96.21-57.56-144.14c5.51,50.52,11.02,101.04,16.52,151.57
			c-5.31,1-7.96,1.5-13.25,2.53c-7.42-66.12-14.83-132.24-22.25-198.37H351.35z"/>
		<path class="st2" d="M488.12,263.51c7.26-0.72,10.89-1.07,18.15-1.74c17.96,47.18,35.64,94.46,53,141.86
			c-3.29-48.52-6.59-97.04-9.88-145.56c5.57-0.44,8.36-0.65,13.94-1.06c4.1,63.25,8.19,126.51,12.29,189.76
			c-6.93,0.84-10.4,1.28-17.33,2.16c-17.27-47.37-34.84-94.64-52.7-141.8c3.85,49.12,7.71,98.23,11.56,147.35
			c-5.32,0.76-7.98,1.14-13.3,1.92c-5.25-64.3-10.49-128.59-15.74-192.89H488.12z"/>
		<path class="st2" d="M646.96,251.96c6.74-0.31,10.11-0.46,16.85-0.73c13.06,60.91,25.79,121.89,38.16,182.93
			c-7.68,0.6-11.52,0.91-19.21,1.56c-4.01-19.9-8.06-39.8-12.13-59.7c-10.31,0.74-15.48,1.13-25.79,1.96
			c-2.17,20.6-4.3,41.2-6.39,61.81c-5.33,0.53-7.99,0.8-13.32,1.36c6.79-63.12,14.05-126.19,21.8-189.2L646.96,251.96z
			 M668.66,366.59c-4.93-24.16-9.91-48.31-14.95-72.46c-2.75,24.71-5.44,49.43-8.06,74.16
			C654.86,367.58,659.46,367.24,668.66,366.59L668.66,366.59z"/>
		<path class="st2" d="M746.56,270.11c-0.96,0.29-2.57,0.58-4.18,0.62c-8.37,0.17-14-5.06-14.17-11.5
			c-0.17-6.45,5.83-11.94,13.93-12.06c9.72-0.14,15.67,5.75,15.54,15.28c-0.18,14.18-9.12,27.38-16.44,39.65
			c-4.35,0.13-6.52,0.19-10.87,0.34C736.71,291.7,741.94,281.66,746.56,270.11L746.56,270.11z"/>
		<path class="st2" d="M802.76,376.9c8.03-0.23,12.05-0.33,20.08-0.51c0.21,11.97,2.65,43.16,19.19,42.71
			c10.2-0.28,14.87-14.13,14.96-23.24c0.18-21.67-14.38-41.67-26.46-58.89c-11.69-16.5-23.95-35.4-24.29-55.8
			c-0.31-17.78,15.23-34.46,33.63-33.82c27.2,0.94,36.88,29.48,37.13,52.62c-8.17-0.14-12.26-0.19-20.44-0.27
			c-0.02-11.91-0.69-41.87-17.33-42.95c-7.95-0.52-14.29,8.09-14.09,20.26c0.34,19.47,11.25,35.31,22.16,51.02
			c12.92,18.25,28.1,38.14,27.82,61.42c-0.2,17.27-13.75,38.87-33.4,39.08c-28.17,0.3-38.39-28.18-38.98-51.6v-0.03H802.76z"/>
		<path class="st2" d="M1005.32,256.61c8.11,0.59,12.16,0.9,20.26,1.54c23.37,2.06,54.59,17.6,53.09,44.46
			c-1.43,25.5-27.23,39.06-50.92,39.74c0.1-2.28,0.15-3.42,0.24-5.7c18.08-2.51,28.87-18.99,29.67-35.8
			c0.85-17.92-14.17-33.5-32.44-34.27c-2.23,53.44-4.47,106.87-6.7,160.31c-7.79-0.25-11.7-0.36-19.49-0.56
			c2.09-56.58,4.19-113.15,6.28-169.73L1005.32,256.61z"/>
		<path class="st2" d="M1122.87,349.92c1.67-25,7.53-83.68,47.21-78.45c38.89,5.13,36.8,60.34,34.47,87
			c-2.16,24.82-9.01,80.92-47.15,77.88C1118.79,433.27,1121.19,375.06,1122.87,349.92L1122.87,349.92z M1183.2,356.02
			c1.23-15.07,9.25-73.16-13.78-75.99c-22.83-2.81-24.16,57.9-25.16,71.91c-1.06,14.75-8.5,73.84,13.79,75.86
			C1180.13,429.81,1182.07,369.87,1183.2,356.02L1183.2,356.02z"/>
		<path class="st2" d="M1267.31,287.24c7.26,1.17,10.89,1.77,18.14,2.99c22.51,3.9,54.32,18.95,50.61,46.13
			c-2.23,16.32-16.03,28.47-32.18,31.94c8.43,28.41,16.75,56.84,24.95,85.31c-8.1-1.14-12.14-1.7-20.25-2.78
			c-7.95-29.22-16.02-58.41-24.2-87.56c16.75-1.63,29.09-14.3,30.88-30.49c1.89-17.08-11.58-32.27-28.74-34.46
			c-5.25,49.24-10.48,98.48-15.73,147.72c-7.74-0.93-11.61-1.38-19.37-2.26c5.29-52.18,10.57-104.36,15.86-156.54H1267.31z"/>
		<path class="st2" d="M1408.75,321.49c-9.46-1.98-18.94-3.92-28.42-5.8c0.41-3.1,0.61-4.65,1.02-7.75
			c25.65,5.23,51.25,10.73,76.78,16.51c-0.46,3.01-0.68,4.52-1.14,7.53c-9.43-2.14-18.89-4.23-28.34-6.27
			c-6.72,46.75-13.45,93.5-20.17,140.26c-7.7-1.31-11.55-1.94-19.27-3.2c6.52-47.09,13.04-94.19,19.56-141.28L1408.75,321.49
			L1408.75,321.49z"/>
		<path class="st2" d="M1483.29,405.26c4.07-25.15,15.73-73.02,52.73-63.42c35.48,9.21,32.64,54.63,27.58,82.07
			c-4.53,24.58-17.82,70.28-52.64,62.85C1475.27,479.15,1479.12,431.01,1483.29,405.26L1483.29,405.26z M1542.63,418.81
			c2.49-13.95,14.34-64.18-7.91-69.45c-22.34-5.29-28.2,47.44-30.39,60.56c-2.47,14.71-13.82,64.23,7.94,69.32
			C1533.49,484.21,1540.51,430.76,1542.63,418.81L1542.63,418.81z"/>
		<path class="st2" d="M1617.81,437.41c-3.44-0.92-5.16-1.38-8.6-2.28c0.56-2.82,0.84-4.23,1.4-7.05c3.44,0.92,5.17,1.38,8.61,2.31
			c4.06-20.28,8.13-40.56,12.19-60.85c17.14,5.04,34.23,10.19,51.3,15.47c-0.59,2.75-0.89,4.13-1.49,6.88
			c-10.53-3.23-21.08-6.42-31.64-9.58c-3.67,17.79-7.34,35.58-11,53.37c9.83,2.72,19.65,5.49,29.45,8.32
			c-0.59,2.75-0.89,4.13-1.48,6.88c-9.79-2.8-19.59-5.54-29.41-8.23c-4.68,22.7-9.36,45.41-14.04,68.11
			c-7.62-1.89-11.43-2.82-19.05-4.66l13.76-68.68L1617.81,437.41L1617.81,437.41z"/>
		<path class="st2" d="M1712.59,464.83c6.19-25.14,20.66-65.41,55.45-53.32c33.11,11.51,30.51,51.24,23.6,78.46
			c-6.46,25.42-21.93,62.13-55.33,52.75C1702.46,533.22,1706.22,490.7,1712.59,464.83z M1771.02,483.17
			c3.61-14.56,17.04-57.15-4.62-64.86c-21.58-7.68-30.34,41.21-33.09,52.87c-3.19,13.53-16.72,58.41,4.65,64.73
			C1759.13,542.17,1768.02,495.31,1771.02,483.17z"/>
		<path class="st2" d="M1861.3,446.7c7.7,2.93,11.54,4.41,19.22,7.39c-10.73,38.49-21.46,76.98-32.19,115.47
			c10.63,3.61,21.24,7.26,31.84,10.95c-0.71,2.46-1.07,3.7-1.78,6.16c-16.81-5.8-33.66-11.49-50.55-17.05
			C1838.99,528.65,1850.14,487.68,1861.3,446.7L1861.3,446.7z"/>
		<path class="st2" d="M1960.09,486.25c7.62,3.21,11.43,4.82,19.04,8.08c-12.07,38.53-24.16,77.06-36.23,115.6
			c-7.44-2.78-11.16-4.16-18.61-6.88C1936.22,564.12,1948.16,525.19,1960.09,486.25L1960.09,486.25z"/>
		<path class="st2" d="M2013.12,573.6c8.25-24.98,27.51-54.05,58.02-39.39c29.62,14.23,28.57,46.43,18.88,73.18
			c-9,24.84-27.85,50.92-57.86,38.83C2001.78,633.98,2004.73,599,2013.12,573.6L2013.12,573.6z M2069.97,598.33
			c4.96-13.97,19.26-48.9-0.86-58.31c-20.48-9.59-31.66,30.01-35.82,42.2c-4.76,13.95-19.1,49.82,0.89,58.19
			c19.64,8.22,31.52-30.07,35.79-42.07V598.33z"/>
	</g>
</g>
<g id="Text2">
	<rect x="630.37" y="954.95" class="st3" width="3.64" height="1.79"/>
	<g>
		<path class="st2" d="M1582.76,1237.87c13.95-15.2,27.76-30.51,41.43-45.95c24.07-28.04,48.51-59.46,56.19-95.87
			c2.6-12.33,10.72-47.19-5.95-51.7c-19.39-5.24-29.01,36.94-33.04,50.66c-9.25-2.2-13.87-3.33-23.09-5.63
			c7.05-25.11,26.14-65.27,59.41-57.24c30.92,7.46,32.72,43.88,26.89,69.13c-8.84,38.26-41.02,70.97-66.61,99.62
			c-12.18,13.55-24.48,27.01-36.88,40.38c23.13,5.5,46.29,10.71,69.55,15.65c-1.7,7.82-2.56,11.73-4.26,19.54
			c-29.58-6.29-59.02-13.03-88.37-20.24L1582.76,1237.87L1582.76,1237.87z"/>
		<path class="st2" d="M1861.8,1189.24c4.17-29.63,14.5-120.45,63.27-114.72c48.78,5.73,37.49,96.17,34.59,125.95
			c-3.13,32.05-11.1,121.44-63.37,115.73c-52.24-5.71-38.93-95.36-34.48-126.96H1861.8z M1934.02,1197.92
			c1.82-16.76,17.04-107.71-10.44-110.86c-27.72-3.18-34,88.29-36.22,105.51c-2.32,17.92-19.87,107.63,10.42,111.09
			c30.08,3.44,34.34-88.23,36.25-105.74H1934.02z"/>
		<path class="st2" d="M2133.36,1310.73c10.07-17.89,19.98-35.86,29.73-53.93c16.97-32.65,33.53-68.66,32.66-105.83
			c-0.3-12.56-0.38-48.35-17.59-49.06c-20.02-0.83-19.72,42.44-20.51,56.66c-9.47-0.1-14.22-0.18-23.7-0.38
			c1.1-25.93,10.39-69.37,44.59-68.9c31.8,0.44,41.83,35.6,41.94,61.42c0.15,39.22-23.63,78.19-41.94,111.78
			c-8.74,15.9-17.59,31.72-26.58,47.49c23.72,0.24,47.42,0.2,71.14-0.11c0.13,7.99,0.19,11.99,0.33,19.98
			c-30.16,0.4-60.3,0.34-90.46-0.19C2133.12,1322.09,2133.2,1318.3,2133.36,1310.73L2133.36,1310.73z"/>
		<path class="st2" d="M2396.6,1253.56c9.9-0.87,14.85-1.32,24.75-2.29c2.2,15.67,5.02,57.23,29.51,54.43
			c23.07-2.64,15.49-47.87,13.86-61.53c-1.7-14.22-4.44-55.29-28.09-52.63c-12.35,1.39-17.37,8.84-19.39,15.38
			c-5.46,0.53-8.19,0.79-13.66,1.3c-1.24-42.26-2.63-84.51-4.15-126.76c20.33-1.93,40.64-4.16,60.91-6.65
			c1.01,7.93,1.52,11.9,2.53,19.83c-16.61,2.05-33.24,3.89-49.89,5.58c1.38,29.59,2.7,59.17,3.95,88.76
			c5.49-5.83,11.63-9.34,21.68-10.35c34.89-3.49,47.91,35.99,51.94,62.4c4.18,27.37-2.58,72.87-37.89,77.17
			c-35.98,4.38-52.64-35.71-56.06-64.65L2396.6,1253.56L2396.6,1253.56z"/>
	</g>
</g>
</svg>
