<?xml version="1.0" encoding="UTF-8"?>
<svg id="Layer_1" data-name="Layer 1" xmlns="http://www.w3.org/2000/svg" viewBox="0 0 132.2 172.51">
  <g>
    <ellipse cx="66.1" cy="106.68" rx="65.45" ry="66.47" transform="translate(-58.76 94.11) rotate(-52.47)" style="fill: none;"/>
    <path d="M9.73,57.39c1.17-1.32,1.87-1.3,2.79-.48l3.63,3.2c.94.83,1.05,1.52-.12,2.84l-.97,1.1-6.3-5.57.97-1.1ZM15.91,62.02c.42-.48.31-.8-.19-1.25l-3.86-3.41c-.45-.4-.76-.44-1.18.03l-.04.05,5.24,4.63.04-.05Z"/>
    <path d="M21.29,57.68c-1.08.98-1.71.82-2.54-.09l-3.34-3.68c-.83-.92-.92-1.56.16-2.54l.03-.02c1.07-.97,1.71-.82,2.54.09l3.34,3.68c.83.92.92,1.57-.16,2.54l-.02.02ZM21.23,56.63c.24-.21.12-.5-.33-.99l-3.4-3.75c-.4-.44-.67-.58-.9-.37l-.03.02c-.24.21-.13.49.28.93l3.4,3.75c.45.5.72.64.96.43l.02-.02Z"/>
    <path d="M20.46,47.36l1.57-1.13,3.1,2.75.28.27.04-.03-.23-.3-2.36-3.28.62-.45,4.91,6.81-1.57,1.13-3.1-2.74-.28-.27-.04.03.23.3,2.36,3.27-.62.45-4.91-6.81Z"/>
    <path d="M27.3,42.75l1.69-.95,2.77,3.08.25.3.04-.02-.2-.33-1.98-3.53.67-.37,4.11,7.33-1.69.95-2.77-3.07-.25-.3-.04.02.2.33,1.97,3.52-.67.37-4.11-7.33Z"/>
    <path d="M39.35,46.07l-1.43-3.39-.8.34,1.43,3.39-.71.3-2.6-6.16c-.48-1.14-.36-1.77.98-2.34h.03c1.33-.58,1.89-.22,2.37.92l2.6,6.16-1.87.79ZM36.83,42.32l.8-.34-.91-2.17c-.23-.55-.42-.77-.72-.65h-.03c-.29.14-.28.43-.05.98l.91,2.17Z"/>
    <path d="M41.72,36.21l1.42-.45.54,1.68-.26,1.39-.8.26.3-1.52-.69.22-.5-1.58Z"/>
    <path d="M47.14,36.38c-.27-1.21-.04-1.81,1.37-2.14h.04c1.41-.33,1.89.11,2.16,1.32l.18.81-.75.17-.18-.81c-.15-.66-.3-.93-.62-.86h-.04c-.31.08-.33.39-.18,1.05l.22.97c.15.66.35.92.8.81l.09-.02c.73-.17,1,.13,1.2,1l.39,1.72c.27,1.21.04,1.81-1.37,2.14h-.04c-1.41.33-1.89-.11-2.16-1.32l-.21-.92.74-.17.21.92c.15.66.31.91.62.84h.03c.31-.08.35-.38.2-1.04l-.3-1.32c-.15-.66-.35-.92-.82-.81l-.08.02c-.73.17-1-.13-1.2-1l-.31-1.37Z"/>
    <path d="M59.31,32.65l1.47-.08c1.76-.1,2.23.42,2.3,1.65l.07,1.2c.06,1.1-.26,1.67-1.55,1.85l.2,3.65-2.02.11-.47-8.39ZM61.62,36.57c.64-.04.79-.33.75-1l-.08-1.51c-.03-.6-.22-.85-.85-.82h-.07s.19,3.33.19,3.33h.07Z"/>
    <path d="M68.37,40.98c-1.46-.07-1.79-.63-1.73-1.86l.24-4.96c.06-1.23.45-1.76,1.9-1.68h.04c1.44.07,1.79.63,1.73,1.86l-.24,4.96c-.06,1.23-.46,1.75-1.91,1.68h-.03ZM69.07,40.2c.32.02.43-.27.47-.94l.25-5.06c.03-.6-.06-.88-.38-.9h-.03c-.32-.02-.43.25-.46.85l-.25,5.06c-.03.67.05.96.37.98h.03Z"/>
    <path d="M76.61,41.83l.51-3.21c.09-.59-.02-.88-.56-.96l-.17-.03-.64,4.07-2-.31,1.31-8.3,1.83.29c1.56.25,1.72.78,1.54,1.94l-.17,1.08c-.08.51-.28.85-.8,1.03.43.32.52.73.44,1.24l-.52,3.3-.76-.12ZM76.66,36.99c.54.08.74-.15.83-.74l.17-1.05c.1-.66.17-.96-.55-1.07l-.17-.03-.45,2.87.17.03Z"/>
    <path d="M82.32,34.41l4.02,1.06-.19.72-1.02-.27-1.95,7.4-1.96-.52,1.95-7.4-1.04-.27.19-.72Z"/>
    <path d="M88.61,45.17c-1.36-.51-1.52-1.15-1.08-2.3l1.75-4.65c.43-1.16.96-1.53,2.33-1.02h.03c1.35.52,1.51,1.16,1.08,2.32l-1.75,4.65c-.43,1.16-.98,1.53-2.33,1.02h-.03ZM89.51,44.64c.3.11.5-.12.73-.75l1.78-4.74c.21-.56.21-.86-.09-.97h-.03c-.3-.12-.49.1-.7.66l-1.78,4.74c-.24.63-.24.93.06,1.05h.03Z"/>
    <path d="M97.36,39.69l3.06,1.53-.33.67-1.25-.63-1.22,2.45,1.25.62-.34.68-1.25-.63-1.86,3.73-1.81-.91,3.75-7.51Z"/>
    <path d="M100.86,51.28c-1.23-.78-1.25-1.43-.59-2.48l2.66-4.2c.66-1.04,1.26-1.31,2.49-.52l.03.02c1.22.77,1.25,1.43.59,2.48l-2.66,4.2c-.66,1.04-1.27,1.3-2.49.52l-.03-.02ZM101.86,50.95c.27.17.51-.02.87-.58l2.71-4.28c.32-.51.38-.79.11-.96l-.03-.02c-.27-.17-.5,0-.83.51l-2.71,4.28c-.36.57-.43.87-.16,1.04l.03.02Z"/>
    <path d="M110.57,47.7l1.59,1.26-4.75,5.98,1.1.87-.47.59-2.68-2.13,5.22-6.57Z"/>
    <path d="M116.09,52.29l1.48,1.39-5.75,6.13-1.48-1.39,5.75-6.13Z"/>
    <path d="M115.49,63.74c-.96-1.09-.8-1.72.13-2.54l3.73-3.29c.93-.82,1.57-.9,2.54.19l.02.03c.96,1.08.8,1.72-.13,2.54l-3.73,3.29c-.93.82-1.58.89-2.54-.19l-.02-.03ZM116.54,63.7c.21.24.5.12,1-.32l3.8-3.35c.45-.4.59-.66.38-.9l-.02-.03c-.21-.24-.49-.13-.94.26l-3.8,3.35c-.51.44-.65.71-.44.95l.02.03Z"/>
  </g>
  <path d="M26.04,66.12c8.04-6.5,17.94-11.01,27.94-13.52,12.06-3.03,22.29-1.12,33.27,4.39,4.33,2.17,8.98,4.33,12.09,8.17s4.32,8.92,4.94,13.8c1.28,10.05,3.07,21.89-4.21,30.02-13.47,15.05-38.5,21.74-56.81,11.91-8.18-4.39-12.7-13.72-13.42-22.72-.41-5.19.19-10.36,4.06-14.18,3.65-3.61,8.86-6.14,13.66-7.81,11.03-3.83,26.35-3.13,28.61,11,1.24,7.8-4.92,12.68-11.88,14.69-3.66,1.06-6.85.16-9.32-2.75-.67-.79-1.52-1.97-1.89-2.92l-.69-1.77c.6-2.59,1.94-3.71,4.02-3.35-.4,3.84,5.6,3.81,6,0,1.06-10.02-20.9-6.58-15.07,6.94,2.26,5.25,6.97,9.98,12.94,10.33,6.33.37,13.6-3.52,18-7.86,9.78-9.66,1.82-26.6-9.45-30.84-12.66-4.77-30.59.99-39.7,10.65s-5.89,26.47.95,36.4c8.32,12.06,24.56,15.65,38.5,14.6,13.28-1,28.87-9.35,37.17-19.81,4.25-5.35,5.65-11.19,5.48-17.94-.18-7.39-.38-15.27-2.41-22.44-2.19-7.72-7.04-13.08-13.99-16.93-7.45-4.13-15.4-8.07-23.97-8.98-17.15-1.81-35.94,6.04-49.09,16.67-3,2.43,1.27,6.65,4.24,4.24h0Z" style="fill: #472d16;"/>
  <g>
    <path d="M46.85,138.59c.6-2.07,2.41-1.32,3.04-3.77.1-.39.15-.59.25-.98.17-.66.14-.98-.2-1.07-.01,0-.02,0-.04,0-.34-.09-.53.17-.71.83-.09.32-.13.49-.22.81-.33-.09-.5-.14-.84-.24.09-.32.14-.49.23-.81.35-1.21.88-1.6,2.41-1.21.02,0,.03,0,.05.01,1.53.39,1.8.99,1.53,2.22-.09.42-.14.63-.23,1.05-.4,1.82-3.67,1.45-4.09,3.02,1.3.36,1.96.52,3.27.81-.16.7-.23,1.06-.39,1.76-1.79-.39-2.67-.62-4.44-1.13.15-.52.22-.77.37-1.29Z"/>
    <path d="M60.23,142.48c-1.79-.15-2.18-.77-2.03-2.01.23-2.01.35-3.01.58-5.01.14-1.25.6-1.73,2.17-1.6.01,0,.02,0,.04,0,1.56.13,1.94.68,1.88,1.93-.1,2.02-.15,3.02-.26,5.04-.06,1.25-.56,1.8-2.33,1.65-.02,0-.03,0-.04,0ZM61.11,141.72c.39.03.53-.26.58-.94.13-2.05.2-3.08.33-5.13.04-.61-.06-.89-.4-.92-.01,0-.02,0-.04,0-.35-.03-.48.24-.53.85-.16,2.05-.25,3.08-.41,5.13-.05.68.05.98.43,1.01.02,0,.02,0,.04,0Z"/>
    <path d="M69.61,141.24c-.11-2.16,1.83-2.04,1.63-4.55-.03-.4-.05-.61-.08-1.01-.05-.68-.19-.97-.54-.95-.01,0-.02,0-.04,0-.35.03-.44.34-.4,1.02.02.34.03.5.05.84-.34.02-.52.03-.86.05-.02-.34-.03-.5-.04-.84-.06-1.25.3-1.8,1.86-1.93.02,0,.03,0,.05,0,1.56-.13,2.01.35,2.16,1.6.05.43.07.64.12,1.07.21,1.85-2.97,2.57-2.86,4.19,1.34-.09,2.01-.15,3.34-.3.08.72.12,1.08.21,1.79-1.81.21-2.72.29-4.53.38-.03-.54-.04-.8-.07-1.34Z"/>
    <path d="M80.63,134.09c.17.72.25,1.08.42,1.8.26-.27.62-.51,1.1-.63.02,0,.02,0,.04,0,1.76-.45,2.27.33,2.61,1.48.17.59.26.89.43,1.48.35,1.21.06,1.88-1.68,2.33-.02,0-.02,0-.04.01-1.76.45-2.28.18-2.65-1.49.36-.08.55-.12.91-.21.24,1.02.4,1.17.78,1.08.02,0,.02,0,.04,0,.38-.09.42-.4.25-1.07-.17-.7-.26-1.04-.44-1.74-.17-.66-.34-.93-.7-.84-.02,0-.02,0-.04,0-.36.09-.41.41-.29.89-.35.08-.53.12-.89.2-.42-1.88-.63-2.81-1.05-4.69,1.57-.35,2.36-.55,3.91-1,.05.18.08.27.13.46.15.51.12,1.19-.58,1.38-.9.25-1.35.36-2.26.58Z"/>
  </g>
</svg>