<?xml version="1.0" encoding="UTF-8"?>
<svg id="Layer_1" data-name="Layer 1" xmlns="http://www.w3.org/2000/svg" viewBox="0 0 131.93 173.64">
  <g>
    <ellipse cx="65.96" cy="107.68" rx="65.45" ry="66.47" transform="translate(-56.86 78.36) rotate(-45.08)" style="fill: none;"/>
    <path d="M15.75,52.14c1.16-1.03,1.81-.88,2.63.04l3.21,3.61c.83.93.9,1.59-.26,2.62l-.55.49-5.58-6.28.55-.49ZM21.12,57.66c.48-.42.4-.76-.04-1.26l-3.42-3.85c-.4-.45-.7-.53-1.18-.11l-.05.05,4.64,5.22.05-.05Z"/>
    <path d="M26.41,54.34c-.76.56-1.38.35-2.12-.65l-2.95-4c-.73-.99-.75-1.65.01-2.21l.03-.02c.81-.59,1.38-.35,2.12.65l2.95,4c.73.99.8,1.62-.01,2.21l-.03.02ZM26.08,53.63c.25-.18.17-.48-.23-1.02l-3.06-4.15c-.36-.48-.6-.64-.86-.46l-.03.02c-.26.19-.18.47.18.96l3.06,4.15c.4.54.66.71.91.52l.03-.02Z"/>
    <path d="M25.96,44.41l.8-.48,3.08,3.37.5.57.04-.02-.56-.87-2.16-3.59.62-.37,4.32,7.21-.8.48-3.08-3.36-.5-.57-.04.02.56.87,2.15,3.58-.62.37-4.32-7.21Z"/>
    <path d="M32.03,41.02l.84-.4,2.75,3.65.44.61.04-.02-.47-.92-1.8-3.78.65-.31,3.61,7.59-.84.4-2.74-3.64-.44-.61-.04.02.47.92,1.8,3.77-.65.31-3.61-7.58Z"/>
    <path d="M42.78,45.56l-1.26-3.45-.81.3,1.26,3.45-.73.27-2.29-6.28c-.42-1.16-.33-1.77.62-2.12h.03c.88-.33,1.43.04,1.85,1.2l2.29,6.28-.96.35ZM40.45,41.69l.81-.3-.82-2.25c-.21-.56-.38-.79-.69-.68h-.03c-.3.12-.3.42-.1.98l.82,2.25Z"/>
    <path d="M44.47,36.19l.88-.25.42,1.51-.17,1.24-.54.15.14-1.35-.34.1-.4-1.41Z"/>
    <path d="M49.11,36.76c-.25-1.21-.03-1.81,1.02-2.02h.03c.99-.21,1.4.26,1.65,1.47l.17.81-.76.15-.17-.86c-.13-.66-.33-.92-.64-.86h-.04c-.38.09-.39.39-.25,1.05l.2.99c.13.63.24.78.73.78h.37c.72.05.94.57,1.11,1.41l.28,1.39c.25,1.21.03,1.81-1.02,2.02h-.03c-.99.21-1.4-.26-1.65-1.47l-.19-.93.75-.15.2.98c.13.66.34.91.65.85h.03c.39-.09.4-.38.27-1.04l-.27-1.34c-.13-.63-.27-.78-.74-.78h-.36c-.73-.05-.93-.51-1.09-1.32l-.23-1.13Z"/>
    <path d="M59.97,33.47l.65-.03c1.62-.08,2.05.44,2.12,1.67l.06,1.2c.06,1.1-.3,1.76-1.56,1.85l.19,3.66-1.02.05-.43-8.39ZM61.27,37.46c.64-.03.79-.33.76-1l-.08-1.51c-.03-.6-.22-.85-.85-.82h-.07s.17,3.34.17,3.34h.07Z"/>
    <path d="M67.34,41.82c-.94-.04-1.3-.59-1.26-1.82l.18-4.97c.04-1.24.44-1.76,1.38-1.73h.03c1,.04,1.3.59,1.25,1.82l-.18,4.97c-.04,1.24-.38,1.76-1.38,1.73h-.03ZM67.53,41.06c.31.01.43-.27.46-.94l.19-5.16c.02-.6-.07-.88-.39-.89h-.03c-.32-.01-.43.26-.45.86l-.19,5.16c-.03.67.08.96.38.98h.03Z"/>
    <path d="M73.96,42.33l.41-3.23c.08-.59-.05-.88-.59-.95l-.17-.02-.52,4.08-1.02-.13,1.07-8.33,1.03.13c1.41.18,1.56.71,1.41,1.87l-.14,1.08c-.07.51-.26.86-.77,1.05.44.31.54.71.47,1.22l-.42,3.31-.77-.1ZM73.87,37.49c.54.07.74-.17.81-.77l.14-1.06c.08-.67.15-.96-.58-1.05l-.17-.02-.37,2.88.17.02Z"/>
    <path d="M79.24,34.68l2.73.58-.16.73-.86-.18-1.6,7.49-1-.21,1.6-7.49-.87-.19.16-.73Z"/>
    <path d="M84.15,44.62c-.9-.27-1.11-.9-.75-2.08l1.44-4.76c.36-1.18.87-1.59,1.78-1.32h.03c.96.3,1.11.91.75,2.09l-1.44,4.76c-.36,1.18-.82,1.61-1.78,1.32h-.03ZM84.53,43.93c.29.09.49-.15.68-.8l1.49-4.94c.17-.58.15-.87-.15-.96h-.03c-.31-.1-.48.13-.66.71l-1.49,4.94c-.19.64-.17.95.13,1.04h.03Z"/>
    <path d="M91.75,38.28l2,.79-.27.69-1.05-.42-1.01,2.54,1.05.42-.28.7-1.05-.42-1.53,3.87-.95-.38,3.09-7.81Z"/>
    <path d="M94.54,48.73c-.85-.42-.94-1.07-.39-2.18l2.21-4.45c.55-1.11,1.13-1.42,1.98-1h.03c.9.46.94,1.09.39,2.19l-2.21,4.45c-.55,1.11-1.08,1.45-1.98,1l-.03-.02ZM95.03,48.11c.28.14.51-.07.81-.67l2.3-4.62c.27-.54.3-.83.01-.97l-.03-.02c-.28-.14-.5.06-.77.6l-2.3,4.62c-.3.6-.33.91-.05,1.05l.03.02Z"/>
    <path d="M103.09,43.74l.88.53-3.96,6.54.96.58-.39.65-1.84-1.12,4.35-7.19Z"/>
    <path d="M107.9,46.84l.84.59-4.85,6.85-.84-.59,4.85-6.85Z"/>
    <path d="M107.58,57.23c-.73-.6-.67-1.26.12-2.21l3.17-3.82c.79-.95,1.42-1.12,2.15-.52l.03.02c.77.64.67,1.26-.12,2.21l-3.18,3.82c-.79.95-1.38,1.16-2.15.52l-.03-.02ZM108.19,56.74c.24.2.51.05.94-.47l3.3-3.97c.38-.46.48-.74.24-.94l-.03-.02c-.25-.2-.5-.06-.88.4l-3.3,3.97c-.43.52-.53.81-.29,1.01l.03.02Z"/>
  </g>
  <path d="M27.53,62.84c4.02-3.32,8.59-5.93,13.33-8.06s10.07-3.98,15.37-4.96,10.66-1.08,15.83.23,10.26,3.98,15,6.57c4.36,2.39,7.93,5.43,9.78,10.17s2.12,9.43,2.43,14.22c.34,5.22,1.2,11.15-1.01,16.08-1.86,4.14-5.31,7.4-8.93,10.03-3.98,2.88-8.36,5.41-12.87,7.35-5.05,2.16-10.25,3.07-15.73,2.71s-10.88-1.03-15.77-3.11c-4.15-1.77-7.59-4.81-10-8.61s-3.75-7.9-4.26-12.19c-.58-4.84-.32-10.15,3.14-13.91s8.56-6.27,13.33-7.92c5.05-1.75,10.66-2.73,15.92-1.32,4.71,1.27,8.63,4.36,10.11,9.11.74,2.38,1.23,5.2.81,7.68s-2.01,4.15-3.9,5.53c-3.61,2.65-9.15,5.91-13.69,3.83-2.04-.93-3.56-2.71-4.68-4.6-.9-1.54-2.23-4.19-.74-5.77.75-.8,2-1.12,3.04-1.34.55-.12,2.84-.38,2.41.79-.67,1.81,2.23,2.6,2.89.8,1.04-2.81-1.93-4.82-4.42-4.73s-5.65,1.19-6.9,3.53c-2.39,4.48,1.9,10.56,5.46,13.07,5.17,3.64,11.36,1.23,16.2-1.71,2.22-1.35,4.37-2.93,5.82-5.13,1.61-2.43,1.81-5.36,1.49-8.18-.65-5.83-3.18-10.92-8.42-13.87s-11.23-3.16-16.93-2.04-11.98,3.76-16.85,7.42c-2.24,1.68-4.3,3.69-5.54,6.23-1.33,2.71-1.78,5.72-1.78,8.71,0,10.04,4.49,20.64,13.39,25.89,5.2,3.07,11.35,3.99,17.27,4.61,6.39.67,12.51.1,18.49-2.33,5.24-2.12,10.33-4.99,14.85-8.38,4.21-3.16,8.04-7.01,9.95-12.01,1.08-2.82,1.26-5.83,1.2-8.82-.08-3.26-.27-6.53-.52-9.78-.42-5.39-1.12-10.99-3.82-15.78-2.88-5.12-7.86-7.93-12.94-10.5-5.73-2.89-11.46-5.51-17.93-6.11-6.09-.57-12.29.44-18.12,2.19s-11.62,4.22-16.88,7.35c-2.46,1.46-4.79,3.12-6.99,4.94-1.49,1.23.64,3.34,2.12,2.12h0Z" style="fill: #472d16;"/>
  <g>
    <path d="M51.18,129.73c.51-2.28,2.43-1.99,2.9-4.55.08-.41.12-.62.19-1.03.12-.66.07-.97-.27-1.04-.01,0-.02,0-.04,0-.34-.07-.51.2-.64.86-.07.34-.11.51-.18.86-.33-.07-.5-.11-.84-.18.07-.32.11-.48.18-.81.27-1.21.71-1.65,1.75-1.45.02,0,.03,0,.05,0,.98.19,1.28.78,1.08,2-.07.42-.1.62-.17,1.04-.38,2.32-2.76,2.68-3.07,4.16.93.19,1.4.28,2.34.43-.06.38-.09.58-.16.96-1.32-.22-1.98-.34-3.28-.64.06-.25.08-.38.14-.63Z"/>
    <path d="M60.06,131.71c-1.17-.07-1.59-.66-1.47-1.89.18-1.98.27-2.97.46-4.94.11-1.23.56-1.72,1.56-1.66.01,0,.02,0,.04,0,1.06.07,1.38.61,1.34,1.84-.07,1.99-.1,2.98-.17,4.96-.04,1.23-.46,1.77-1.7,1.69-.02,0-.03,0-.04,0ZM60.3,130.96c.38.02.53-.26.56-.93.11-2.06.16-3.09.27-5.15.03-.6-.07-.88-.41-.9-.01,0-.02,0-.04,0-.34-.02-.47.25-.51.84-.14,2.06-.22,3.09-.36,5.14-.05.67.07.97.45.99.02,0,.02,0,.04,0Z"/>
    <path d="M65.84,131.09c-.08-2.34,1.84-2.53,1.65-5.13l-.07-1.04c-.05-.67-.18-.96-.52-.94-.01,0-.02,0-.04,0-.34.02-.44.32-.4,1,.02.35.03.52.05.87-.34.02-.51.02-.85.04-.01-.33-.02-.5-.03-.83-.04-1.23.26-1.77,1.32-1.84.02,0,.03,0,.05,0,.99-.06,1.43.43,1.55,1.66.04.42.06.63.1,1.05.22,2.34-1.99,3.29-1.91,4.8.95-.05,1.42-.08,2.37-.17.04.39.05.58.09.97-1.33.12-1.99.17-3.32.21,0-.26-.01-.39-.02-.65Z"/>
    <path d="M72.87,123.49c.16.9.24,1.35.41,2.24.15-.23.4-.46.74-.53.02,0,.02,0,.04,0,1.06-.21,1.46.59,1.71,1.73.16.7.24,1.05.39,1.76.27,1.21-.08,1.85-1.22,2.07-.02,0-.03,0-.04,0-1.24.24-1.69-.11-1.99-1.99.37-.06.55-.09.91-.16.23,1.28.4,1.5.79,1.43.02,0,.02,0,.04,0,.39-.07.44-.38.31-1.04-.16-.82-.25-1.23-.41-2.06-.13-.66-.29-.93-.65-.86-.02,0-.02,0-.04,0-.36.07-.42.38-.34.85-.35.06-.53.09-.88.15-.29-1.75-.44-2.63-.73-4.38,1.13-.19,1.7-.3,2.82-.55.04.18.06.27.1.46.05.21-.02.48-.41.57-.61.13-.92.19-1.54.3Z"/>
  </g>
</svg>