<?xml version="1.0" encoding="UTF-8"?>
<svg xmlns="http://www.w3.org/2000/svg" xmlns:xlink="http://www.w3.org/1999/xlink" viewBox="0 0 2937 1795">
  <defs>
    <linearGradient id="linear-gradient" x1="1468.5" y1=".5" x2="1468.5" y2="1794.5" gradientUnits="userSpaceOnUse">
      <stop offset=".31" stop-color="#a37c53"/>
      <stop offset="1" stop-color="#e1cdb2"/>
    </linearGradient>
    <clipPath id="clippath">
      <rect x="1267.74" y="713.3" width="401.53" height="535.01" rx="94.9" ry="94.9" style="fill: none;"/>
    </clipPath>
  </defs>
  <g id="Layer_1" data-name="Layer 1">
    <g>
      <rect x=".5" y=".5" width="2936" height="1794" style="fill: url(#linear-gradient);"/>
      <path d="M2936,1v1793H1V1h2935M2937,0H0v1795h2937V0h0Z"/>
    </g>
  </g>
  <g id="Billede">
    <g>
      <rect x="1211.32" y="652.05" width="514.36" height="657.52" rx="134.1" ry="134.1" style="fill: #472d16;"/>
      <path d="M1591.58,652.55c35.69,0,69.24,13.9,94.47,39.13,25.23,25.23,39.13,58.79,39.13,94.47v389.31c0,35.69-13.9,69.24-39.13,94.47-25.23,25.23-58.79,39.13-94.47,39.13h-246.16c-35.69,0-69.24-13.9-94.47-39.13-25.23-25.23-39.13-58.79-39.13-94.47v-389.31c0-35.69,13.9-69.24,39.13-94.47,25.23-25.23,58.79-39.13,94.47-39.13h246.16M1591.58,651.55h-246.16c-74.34,0-134.6,60.26-134.6,134.6v389.31c0,74.34,60.26,134.6,134.6,134.6h246.16c74.34,0,134.6-60.26,134.6-134.6v-389.31c0-74.34-60.26-134.6-134.6-134.6h0Z"/>
    </g>
    <g style="clip-path: url(#clippath);">
      <image width="370" height="493" transform="translate(1267.74 713.3) scale(1.09)" xlink:href="../../ADOBE/ommigbillede.webp"/>
    </g>
  </g>
  <g id="Tekst">
    <g>
      <path d="M844.35,406.5c4.27-3.11,6.42-4.64,10.72-7.69,31.42-24.08,59.84,1.23,77.02,28.16,14.53,22.76,31.14,63.72,1.54,82.85-3.75,2.66-5.62,4-9.35,6.7-26.65-36.67-53.29-73.35-79.94-110.02ZM919.17,436.1c-10.68-16.96-34.22-49.43-57.91-33.34,23.52,33.42,47.04,66.84,70.56,100.26,19.8-15.9-3.5-52.39-12.65-66.92Z" style="fill: #e5d2b7;"/>
      <path d="M985.24,397.06c-9.67-17.39-33.44-61.85-5.21-75.97,28.23-14.13,50.02,29.72,58.88,48.19,7.95,16.59,30.35,61.89,4.89,75.1-25.48,13.22-49.55-31.14-58.55-47.32ZM1024.75,376.2c-5.33-10.69-25.83-56.6-41.41-48.72-15.48,7.83,10.36,51.8,15.81,61.98,5.23,9.76,27.95,55.66,41.34,48.53,13.54-7.21-10.57-51.43-15.74-61.78Z" style="fill: #e5d2b7;"/>
      <path d="M1071.58,280.59c5.11-2.06,7.67-3.07,12.8-5.06,22.51,28.35,44.23,57.24,65.21,86.74-11.54-32.69-23.08-65.38-34.62-98.07,3.97-1.4,5.96-2.09,9.95-3.46,14.67,42.9,29.34,85.79,44,128.69-4.52,1.55-6.78,2.33-11.29,3.94-20.78-29.61-42.31-58.61-64.63-87.07,12.66,32.35,25.32,64.69,37.98,97.04-3.43,1.34-5.14,2.02-8.56,3.4-16.94-42.05-33.89-84.1-50.83-126.15Z" style="fill: #e5d2b7;"/>
      <path d="M1192.64,240.1c5.27-1.42,7.91-2.11,13.2-3.46,18.86,30.87,36.89,62.18,54.11,93.99-7.55-33.84-15.1-67.67-22.64-101.51,4.08-.91,6.12-1.35,10.21-2.22,9.43,44.34,18.87,88.68,28.3,133.03-4.64.99-6.96,1.49-11.59,2.54-17.02-31.9-34.84-63.29-53.5-94.25,8.69,33.63,17.38,67.26,26.08,100.89-3.54.91-5.3,1.38-8.83,2.33-11.78-43.78-23.55-87.56-35.33-131.34Z" style="fill: #e5d2b7;"/>
      <path d="M1333.11,212.35c5-.64,7.5-.95,12.5-1.53,12.99,44.07,25.09,88.37,36.31,132.93-5.21.49-7.82.75-13.02,1.31-3.79-14.48-7.65-28.94-11.59-43.38-7.21.83-10.81,1.28-18.01,2.24-.2,14.96-.32,29.91-.37,44.87-3.6.51-5.4.77-8.99,1.31.14-45.95,1.2-91.85,3.17-137.75ZM1355.4,294.85c-4.83-17.43-9.78-34.83-14.84-52.2-.55,18.07-.99,36.14-1.31,54.21,6.45-.86,9.68-1.26,16.15-2.01Z" style="fill: #e5d2b7;"/>
      <path d="M1519.78,291.85c-4.63-29.26-9.71-58.43-15.25-87.54,5.99.2,8.99.33,14.98.61,3.76,24.59,7.24,49.21,10.43,73.88,6.15-24.09,12.57-48.1,19.27-72.04,4.05.31,6.08.47,10.13.82-8.98,28.24-17.51,56.59-25.6,85.1-1.1,16.36-2.2,32.73-3.29,49.09-5.3-.35-7.96-.51-13.27-.79.86-16.38,1.72-32.75,2.59-49.13Z" style="fill: #e5d2b7;"/>
      <path d="M1629.8,216c4.98.76,7.47,1.16,12.45,1.99.3,45.95-.31,91.86-1.84,137.78-5.16-.97-7.74-1.44-12.91-2.34.36-14.96.64-29.93.85-44.9-7.17-1.2-10.76-1.76-17.95-2.82-4.33,14.32-8.58,28.66-12.77,43.02-3.6-.51-5.4-.75-9-1.22,12.84-44.12,26.56-87.94,41.16-131.51ZM1628.41,301.44c.17-18.09.23-36.17.17-54.26-5.53,17.21-10.95,34.46-16.26,51.74,6.44.96,9.66,1.46,16.09,2.53Z" style="fill: #e5d2b7;"/>
      <path d="M1727.39,235.69c5.38,1.35,8.07,2.05,13.44,3.47,19.26,4.89,37.26,21.13,31.02,42.58-3.82,13.11-15.89,22.48-29.1,25.16,1.52,25.07,2.54,50.13,3.05,75.24-5.37-1.68-8.05-2.5-13.44-4.1-.51-25.61-1.52-51.16-3.03-76.74,13.44-1.21,23.9-11.79,27.56-24.04,3.87-12.92-3.23-27.24-16.4-31.15-11.1,41.61-22.2,83.23-33.31,124.84-5.17-1.38-7.76-2.05-12.95-3.35,11.05-43.97,22.11-87.93,33.16-131.9Z" style="fill: #e5d2b7;"/>
      <path d="M1846.67,273.24c4.77,1.82,7.15,2.74,11.91,4.62,36.91,12.97,30.29,51.02,17.51,79.43-10.78,23.96-35.69,61.2-67.47,47.07-4.15-1.64-6.22-2.44-10.38-4.03,16.14-42.36,32.29-84.73,48.43-127.09ZM1861.66,351.61c8.11-17.74,22.92-55.54-3.09-66.44-15.11,37.97-30.22,75.95-45.33,113.92,23.79,7.63,41.45-32.23,48.42-47.49Z" style="fill: #e5d2b7;"/>
      <path d="M1964.47,326.59c5.54,2.93,8.3,4.41,13.81,7.43-21.76,39.77-43.53,79.54-65.29,119.31-4.8-2.63-7.21-3.93-12.04-6.48,21.17-40.09,42.35-80.17,63.52-120.26Z" style="fill: #e5d2b7;"/>
      <path d="M2040.69,371.03c4.41,2.82,6.6,4.25,10.98,7.13,33.83,20.47,20.76,56.24,1.96,82.06-15.89,21.82-48.07,52.14-76.64,31.59-3.82-2.51-5.73-3.75-9.58-6.21,24.43-38.19,48.85-76.38,73.28-114.57ZM2040.32,451.45c11.88-16.11,33.5-49.91,9.92-66.09-22.53,34.09-45.06,68.19-67.6,102.28,22.01,12.6,47.5-22.38,57.68-36.19Z" style="fill: #e5d2b7;"/>
    </g>
  </g>
</svg>